<?xml version="1.0" encoding="UTF-8"?>
<svg id="Calque_1" xmlns="http://www.w3.org/2000/svg" version="1.1" viewBox="0 0 61.4 86.8">
  <!-- Generator: Adobe Illustrator 29.1.0, SVG Export Plug-In . SVG Version: 2.1.0 Build 142)  -->
  <defs>
    <style>
      .st0 {
        fill: #fff;
      }
    </style>
  </defs>
  <path class="st0" d="M60.8,37.6c-3.3.8-12.8-1.3-12.9-1.4-.2,0-.5,0-.6.3s0,.5.2.6c.8.4,1.3,1.3,1.2,1.8,0,0,0,.1-.2.2-.5.1-.8.5-.9.7-.2.4-.1.8,0,1.2l-1.8.5-1.3-5.2c1.3-1,6.4-5.4,5.8-10.8v-.2s0,0,0,0c0,0,0,0,0,0h0c-.1-1.2-.2-2.1-.5-3.1,0-.5-.7-3.3-2.7-5.5-.3-.4-.5-.6-.6-.8-.3-.4-.6-.9-2.1-2.9-.9-1.2-1.9-1.8-2.8-1.7-.7,0-1.1.5-1.4.8-5.8-3.6-10.9-7.3-10.8-8.3,0,0,0-.2,0-.3.2.2.4.4.7.5.3,0,1,.1,1.7-.6.5-.5.6-1.2.4-1.9C32,.6,31.2,0,30.4,0c-1.1,0-2,.2-2.6.8-.7.7-1.1,1.8-1,3.3,0,.2,0,.4,0,.6-3.4,13.1-16.9,39.2-18.7,42.7l-7.7,2c-.2,0-.3.2-.4.4,0,.2,0,.4.2.5l3.6,2.5-2,3.9c0,.2,0,.4,0,.5.1.1.3.2.5.2l7.7-2c3.3,2.2,27.7,18.5,37,28.3h0c0,.2.1.4.2.6.7,1.3,1.5,2.2,2.5,2.4.5.1,1,.1,1.5,0,.4,0,.8-.3,1.2-.6.7-.4,1.1-1.2,1-2,0-.7-.5-1.2-1.2-1.4-1-.3-1.6,0-1.8.2-.2.2-.3.5-.4.8,0,0-.1-.2-.2-.2-.6-.8,2.1-6.5,5.4-12.5.3.1.8.2,1.3,0,0,0,.2,0,.3-.1.8-.4,1.4-1.3,1.6-2.8.4-2.4.5-3,.5-3.5,0-.3,0-.5.1-1,.6-2.9-.2-5.6-.3-6.1-.2-1-.6-2-1-3h0s0-.3,0-.3c-2-5-8.6-6.4-10.2-6.7l-1.3-5.2,1.8-.5c0,.3.3.8.6,1,.2.2.6.3,1.2.2.2,0,.2,0,.2,0,.3.4.2,1.4-.2,2.2-.1.2,0,.5.1.6.1,0,.3.1.5,0,0,0,.1,0,.2-.1,0,0,7.4-6.6,10.6-7.4.3,0,.4-.3.4-.6s-.3-.4-.6-.4h0ZM41.6,12.1c.5,0,1.2.4,1.9,1.3.3.4.5.7.8,1-1.1-.6-2.2-1.3-3.3-2,.2-.1.4-.3.6-.3ZM27.7,4.1c0-1.2.2-2.1.8-2.6.2-.2.5-.4.9-.5.3,0,.6-.1,1,0,.4,0,.8.3,1,.7.1.3,0,.6-.2.8-.3.3-.5.4-.7.4-.1,0-.3-.2-.3-.5h.1c0,0,.1,0,.2,0,.3,0,.5,0,.6-.3,0-.3,0-.5-.3-.6,0,0-.2,0-.4,0-.3,0-.7,0-1,.2-.5.3-.8.9-1,1.8,0,.5-.3,1.7,6.6,6.3,1.7,1.1,3.4,2.2,5,3.2,1.8,1.1,3.4,2,4.3,2.6.7.4,1.3.9,1.9,1.5.5.5.8,1.1,1.2,1.6-.6-.5-1.4-1.1-2.4-1.7-.6-.4-1.5-.9-2.4-1.4-.5-.3-1.1-.6-1.8-1-5.2-3-13.1-7.9-13.2-10.5h0ZM48.1,21c-.7-.6-1.4-.9-2.2-1.2h-.3c-1.5-.8-3-1.4-4-3.6.2.1.4.2.6.4.9.5,1.7,1,2.4,1.4,1.8,1.1,2.9,2.1,3.6,3h0ZM27.1,5.5c1.5,2.8,7,6.3,13,9.8,1.2,3.5,3.2,4.4,5,5.2,0,0,0,0,.1,0,5,8.9-3.2,14.1-3.5,14.3-.2.1-.3.3-.2.5l1.7,6.7-27.4,7c-.4-.5-1-1-1.9-.8s-1.1,1-1.2,1.6c-1.9.1-3.5-2.4-3.5-2.4-.1-.2-.3-.3-.5-.2,2.4-4.7,14.8-28.9,18.4-41.7ZM15.1,49.8c0,.2,0,.8-.5.9s-.7-.4-.8-.6q0-.1,0,0c0-.2,0-.8.5-.9s.8.4.9.6ZM3.2,56.1l1.6-3.2h0c0,0,0-.1,0-.1,0,0,0-.2,0-.3,0,0,0,0,0-.2,0,0,0,0,0,0,0,0,0,0,0,0,0,0,0,0,0,0l-3-2.1,6.9-1.8c.4.6,1.6,2,3,2.4-1.1,1.1-1.4,2.8-1.5,3.6l-6.9,1.8h0ZM10.8,55.2c.2,0,.4-.2.4-.5,0,0,.2-3,1.9-3.8.4.5,1,1,1.8.8s1.2-1,1.2-1.6l27.4-7,1.7,6.7c0,.2.2.4.5.4.4,0,10,.6,10,10.8,0,0,0,0,0,0-1.2,1.5-2.6,3.3-1.9,7-3.5,6-6.7,11.8-6.7,14.9-9.3-9.5-31.8-24.8-36.2-27.7h0ZM57.6,68.1c-.2,1.1-.5,1.8-1,2.1,0,0,0,0-.1,0h-.5c.6-1.1,1.3-2.2,1.9-3.3,0,.3-.1.7-.2,1.2h0ZM58.2,63.5c-.2.8-.5,1.5-.9,2.2-.6.9-1.5,2.5-2.5,4.3-.9,1.6-1.9,3.5-2.8,5.2-3.8,7.4-3.1,8.3-2.7,8.8.5.7,1.1,1.1,1.7,1.1.4,0,.8,0,1-.3.2-.1.2-.2.3-.2.2-.2.2-.5,0-.7-.2-.2-.5-.2-.7,0,0,0,0,0-.1.1,0,0,0,0-.1,0,0-.2,0-.5,0-.6.1-.1.4-.1.8,0,.3.1.5.3.6.6,0,.4-.2.8-.5,1.1-.7.4-1.3.6-1.9.4-.7-.2-1.3-.8-1.9-1.9-1.2-2.3,3.4-10.4,6.5-15.5.4-.6.7-1.2,1-1.8.5-.9,1-1.7,1.4-2.4.6-1,1-1.8,1.3-2.6,0,.6,0,1.3-.2,2h0ZM56.2,63.7c-.4.7-.9,1.4-1.4,2.4-.1.2-.2.4-.4.6-.1-2.4.8-3.6,1.9-5l.2-.3c.5-.7,1-1.3,1.3-2.1,0,1.2-.6,2.5-1.7,4.4h0ZM56.8,54.9c0,.2.1.4.2.6.5,1.9.2,3.1-.4,4.2-.7-8.8-8.7-10.3-10.5-10.5l-1.6-6.3.7-.2,1.4,5.5c0,.2.2.3.4.4,0,0,7.9,1,9.9,6.3h0ZM43.7,35.6c-.2.1-.2.3-.2.5l1.4,5.5-.7.2-1.6-6.3c1.5-1.1,7.8-6.2,4.2-14.2,1,.6,1.9,1.5,2.4,3.5,0,.2,0,.4.1.5.9,5.6-5.5,10.3-5.6,10.4h0ZM51,44.1c0-.6,0-1.2-.3-1.5-.3-.4-.8-.5-1.3-.4-.2,0-.3,0-.3,0-.2-.1-.3-.5-.3-.8,0,0,0,0,0,0,0,0,0-.2,0-.3,0-.2-.2-.6,0-.8,0,0,0-.1.2-.2.5-.1.8-.5.9-1,0-.5-.1-1-.4-1.5,2.2.4,6,1.1,8.9,1.2-2.5,1.5-5.5,3.9-7.2,5.3Z"/>
</svg>