<?xml version="1.0" encoding="UTF-8"?>
<svg id="Calque_1" data-name="Calque 1" xmlns="http://www.w3.org/2000/svg" viewBox="0 0 81.93 72.97">
  <defs>
    <style>
      .cls-1 {
        fill: #fff;
        stroke: #fff;
        stroke-miterlimit: 10;
      }
    </style>
  </defs>
  <path class="cls-1" d="M.75,47.71l6.43-.04.16.06s4.22,1.45,9.33,1.96l.45.04.26.37c6.85,9.91,17.59,16.95,33.69,22.03l-1.24-2.42c-.92-1.79-2.26-3.3-3.87-4.36-6.43-4.23-12.14-9.45-16.97-15.51l-.87-1.09,1.32-.45c3.68-1.25,5.69-2.81,5.71-2.82l.27-.21h1.74s-1.41-1.1-1.41-1.1c-1.1-.86-2.46-1.24-3.84-1.08l-7.15.86-.33-.52c-4.07-6.39-7.17-13.4-9.24-20.83-.78-2.79-2.56-5.09-5.02-6.47L2.05,11.6l5.36,8.7.03.21c1.12,9.35,3.2,17.02,6.35,23.45l.61,1.24-13.81,1.66.16.84ZM46.34,22.76h5.31s.15.07.15.07c.08.03,8.08,2.77,15.42,1.89,7.26-.87,11.34-4.01,11.38-4.04l.27-.21h1.59s-1.28-1-1.28-1c-1.05-.82-2.36-1.19-3.68-1.03l-4.82.58,6.85-11.06c.71-1.14,1.15-2.39,1.33-3.73l.29-2.26-2.21,2.8c-.79,1.01-1.7,1.92-2.71,2.71-3.07,2.43-6.03,4.83-8.49,7.51l-.69.75-6.65-6.59c-1.31-1.29-2.92-2.27-4.68-2.83l-15.14-4.82,11.33,7.74c1.7,1.16,3.11,2.64,4.2,4.39l4.26,6.86-12.17,1.47.12.8Z"/>
</svg>