<svg width="24" height="31" viewBox="0 0 24 31" fill="none" xmlns="http://www.w3.org/2000/svg">
<path d="M13.0156 7.51411V4.79757H10.9869V7.49605C4.49601 8.4806 0 13.2409 0 19.1975C0 19.3239 0.0137837 19.4466 0.0175429 19.573H0V20.2868H0.0501226C0.546337 25.7078 4.75539 29.8711 10.7288 30.8484C10.7288 30.8484 10.9919 30.9098 11.7663 30.988C12.4192 31.0337 12.7913 30.9338 12.7913 30.9338C18.9639 30.1563 23.4374 25.8919 23.9499 20.2868H23.9774V19.7247C23.9825 19.549 24 19.3756 24 19.1975C24.0013 13.212 19.4426 8.44931 13.0156 7.51411ZM11.6285 8.40477V12.3574C10.1022 12.3562 8.70631 12.5199 7.45575 12.7763C8.99953 10.4978 10.8992 8.95362 11.6285 8.40477ZM10.2426 8.35302C9.10353 9.37729 7.52342 10.9576 6.30418 13.0435C4.19778 13.6019 2.60262 14.3831 1.64402 14.9367C3.09382 11.6653 6.20268 9.21119 10.2426 8.35302ZM0.741816 19.1975C0.741816 18.0974 0.915992 17.0442 1.2255 16.0477C1.71169 15.7107 3.33441 14.6707 5.83679 13.9101C5.1877 15.2148 4.6965 16.6856 4.53485 18.3249C4.53485 18.3405 4.53234 18.355 4.52984 18.3706C4.49225 18.7618 4.46844 19.159 4.47094 19.5694V19.5718H0.758106C0.755599 19.4466 0.741816 19.3239 0.741816 19.1975ZM1.43226 22.9961C2.3094 23.5221 3.85819 24.3212 5.94706 24.9158C6.94325 26.637 8.46572 28.3268 10.5947 30.107C6.1676 29.3042 2.80812 26.6298 1.43226 22.9961ZM11.6297 29.9349C9.57594 28.3256 8.05597 26.767 7.00841 25.189C8.36673 25.4984 9.9055 25.7054 11.6097 25.7054C11.6172 25.7054 11.6247 25.7054 11.6297 25.7054V29.9349ZM11.631 24.988C9.67994 24.9904 7.94821 24.7148 6.48086 24.3249C5.7591 23.0141 5.3531 21.6817 5.24534 20.2868H11.631V24.988ZM22.4688 15.1137C20.5917 14.1604 18.7923 13.4972 17.0918 13.0627C16.6733 12.3502 16.221 11.6894 15.7536 11.096C14.8777 9.94057 13.9554 8.97889 13.1835 8.25312C17.6219 8.96926 21.0089 11.5414 22.4688 15.1137ZM12.3728 13.0784C13.6797 13.1289 15.0794 13.3119 16.558 13.6657C17.2359 14.891 17.7798 16.2511 18.0341 17.7195C18.0392 17.764 18.0442 17.8085 18.0517 17.8531C18.0918 18.0998 18.1256 18.3478 18.1469 18.6005C18.1732 18.9195 18.1908 19.2408 18.1883 19.5718H12.3728V13.0784ZM12.3715 20.2856H18.1557C18.0905 21.1329 17.9226 21.967 17.6495 22.7891C17.6244 22.8528 17.6081 22.9178 17.583 22.9804C17.5617 23.043 17.5354 23.1056 17.5116 23.1682C17.3663 23.5437 17.1821 23.9144 16.9828 24.2851C15.3476 24.71 13.8038 24.923 12.3715 24.976V20.2856ZM12.374 29.5353V25.6825C13.6609 25.6368 15.0318 25.4671 16.4778 25.1397C15.5393 26.5792 14.1985 28.0103 12.374 29.5353ZM13.0883 30.1635C15.0995 28.4448 16.5706 26.6875 17.5379 24.8737C19.1506 24.4284 20.8498 23.7724 22.6166 22.8625C21.227 26.6767 17.6896 29.4558 13.0883 30.1635ZM23.2444 19.5718H18.9313C18.9313 19.5694 18.9313 19.5646 18.9313 19.561C18.9414 17.439 18.3762 15.5542 17.5642 13.9305C19.2296 14.4084 20.9864 15.1137 22.8196 16.1078C23.1066 17.0804 23.2632 18.1143 23.2632 19.1975C23.2619 19.3239 23.2482 19.4466 23.2444 19.5718ZM18.4589 6.36466L19.8599 6.16968L20.4851 4.95163L21.1117 6.16968L22.5114 6.36466L21.4976 7.3131L21.7357 8.65272L20.4851 8.02082L19.2346 8.65272L19.4714 7.3131L18.4589 6.36466ZM16.0455 5.11412L17.147 4.34501L18.2497 5.11412L17.8286 3.86959L18.9313 3.10049H17.568L17.147 1.85596L16.7259 3.10049H15.3639L16.4666 3.86959L16.0455 5.11412ZM16.1257 3.3376H16.9051L17.1457 2.62627L17.3863 3.3376H18.1657L17.5342 3.77691L17.7748 4.48824L17.1445 4.04893L16.5179 4.48945L16.7573 3.77812L16.1257 3.3376ZM14.2825 1.07963L13.894 0.807619H14.3752L14.5243 0.3671L14.6722 0.807619H15.1521L14.7636 1.07963L14.9128 1.52015L14.5243 1.24814L14.1333 1.52015L14.2825 1.07963ZM5.21777 1.35044L4.47721 0.835302H5.3907L5.67264 0L5.95583 0.835302H6.86931L6.13126 1.35044L6.41445 2.18575L5.67264 1.6694L4.93458 2.18575L5.21777 1.35044ZM6.60367 3.52536H7.66L7.9858 2.56007L8.31285 3.52536H9.36918L8.51585 4.12235L8.84164 5.08764L7.9858 4.49065L7.13121 5.08764L7.457 4.12235L6.60367 3.52536ZM3.37326 6.58974L2.88707 6.25032H3.48979L3.67525 5.69907L3.86195 6.25032H4.46343L3.97598 6.58974L4.16269 7.13978L3.67525 6.79916L3.1878 7.13978L3.37326 6.58974ZM7.36678 5.811L6.8242 6.19014L7.03096 6.80277L6.48838 6.42484L5.94455 6.80277L6.15256 6.19014L5.60998 5.811H6.28288L6.48838 5.19717L6.69639 5.811H7.36678Z" fill="#010002"/>
</svg>
