<svg width="25" height="23" viewBox="0 0 25 23" fill="none" xmlns="http://www.w3.org/2000/svg">
<path d="M12.5 23C12.4178 23 12.3369 22.9781 12.2651 22.9363C10.0889 21.6105 8.04651 20.0603 6.16878 18.3091C2.07543 14.4778 0 10.6729 0 7C0.000341787 5.46983 0.482667 3.98191 1.37319 2.76385C2.26372 1.54578 3.5134 0.664657 4.93108 0.255257C6.34876 -0.154143 7.85636 -0.0692732 9.22327 0.496883C10.5902 1.06304 11.7411 2.07931 12.5 3.39022C13.2589 2.07931 14.4098 1.06304 15.7767 0.496883C17.1436 -0.0692732 18.6512 -0.154143 20.0689 0.255257C21.4866 0.664657 22.7363 1.54578 23.6268 2.76385C24.5173 3.98191 24.9997 5.46983 25 7C25 10.6729 22.9246 14.4778 18.8312 18.3091C16.9535 20.0603 14.9111 21.6105 12.7349 22.9363C12.6631 22.9781 12.5822 23 12.5 23ZM6.73077 1C5.2012 1.00179 3.73477 1.6345 2.6532 2.75933C1.57164 3.88416 0.963256 5.40925 0.961538 7C0.961538 14.4626 10.8384 20.8927 12.5 21.9211C14.1616 20.8927 24.0385 14.4626 24.0385 7C24.0382 5.61321 23.5761 4.26931 22.7308 3.19679C21.8855 2.12426 20.7091 1.38932 19.4016 1.11691C18.0941 0.844506 16.7363 1.05145 15.559 1.70255C14.3816 2.35366 13.4574 3.40874 12.9436 4.68841C12.907 4.77941 12.8454 4.85714 12.7665 4.9118C12.6875 4.96647 12.5948 4.99564 12.5 4.99564C12.4052 4.99564 12.3125 4.96647 12.2335 4.9118C12.1546 4.85714 12.093 4.77941 12.0564 4.68841C11.6191 3.59473 10.8796 2.66053 9.93162 2.00398C8.98364 1.34743 7.86972 0.998041 6.73077 1Z" fill="black"/>
</svg>
