<?xml version="1.0" encoding="UTF-8"?>
<svg id="Calque_1" xmlns="http://www.w3.org/2000/svg" version="1.1" viewBox="0 0 91.5 113.1">
  <!-- Generator: Adobe Illustrator 29.1.0, SVG Export Plug-In . SVG Version: 2.1.0 Build 142)  -->
  <defs>
    <style>
      .st0 {
        fill: #fff;
      }
    </style>
  </defs>
  <path class="st0" d="M27.4,101c-.7-3.3-5.1-5.2-7.7-6-1.8-.6-1.5-7.5,0-13.3.2-1,.4-2.2.7-3.6.9-5.3,2.3-13.4,6.5-14.7,6.1-2,8.2-10.5,9.4-22.7.4-4.5,1-8.9,1.6-12.8,1-6.9,2-11.9,2-12.2v-.3c-.5-1.7-7.7-3-10-3.4s-9.5-1.5-10.6-.2c0,0-.1.2-.1.3,0,.3-.8,5.3-2.2,12.1-.8,3.8-1.7,8.2-2.8,12.5-2.9,11.6-3.9,20.2.9,24.3.1,0,.2.2.3.3,3.5,2.7,2.1,10.7,1.2,16-.2,1.4-.4,2.6-.6,3.6-.7,6-2.7,12.6-4.6,12.5-2.7,0-7.5.2-9.3,3.1v.4c0,0,0,.2.2.3.2,0,4.7,2.6,11.9,3.9h.6c7.2,1.3,12.3.5,12.5.5s.3,0,.3-.2.1-.2,0-.4h-.2ZM29.5,13c5.3.9,8.2,2,9,2.5-.9.2-4.1.3-9.4-.7s-8.3-2-9-2.5c.9-.2,4.1-.3,9.4.7ZM19.8,13.2c2.1,1.3,7.3,2.3,9.2,2.6s7.2,1.2,9.6.7c-.3,1.7-1,5.6-1.7,10.5-2.1-1.4-9-2.5-9.3-2.6s-7.2-1.2-9.7-.7c1-4.9,1.6-8.8,1.9-10.5ZM17.8,24.3c.9-.3,4.3-.3,9.7.6s8.5,2,9.3,2.6v.4c-1,.3-4.3.3-9.7-.6s-8.6-2.1-9.4-2.7v-.4h.1ZM14.4,100.2c-5.8-1-9.9-2.8-11.3-3.5,1.8-2.1,6.2-2.2,8.1-2.1,2.9,0,4.5-6.9,5.2-10.8.7-3.9.4-2.5.4-2.6.1-1,.3-2.2.6-3.5.8-4.3,1.7-9.9.6-13.7.6.3,1.4.4,2,.5s1.4.2,1.5.2.3,0,.3-.2,0-.2-.2-.3c0,0-2.4-.2-3.7-.9-.2-.4-.4-.9-.6-1.2,1.2.5,2.6.7,3.5.9s.9,0,.9,0c.1,0,.3,0,.3-.2s0-.2-.2-.3-3-.4-5.1-1.4c-.2-.2-.4-.4-.7-.6-4-3.1-4.2-9.9-.8-23.5,1-4.2,2-8.3,2.7-11.9,2.1,1.4,9,2.6,9.4,2.7s7.2,1.2,9.7.7c-.5,3.7-1.1,7.9-1.5,12.1-1.3,14-3.9,20.3-8.7,21.8-4.7,1.5-6.2,9.6-7.2,15.5-.2,1.4-.4,2.6-.7,3.5,0,0-.2,1.1-.5,2.6-.7,3.9-1.5,11,1.3,12,1.8.6,5.9,2.2,6.9,4.7-1.5.2-6.1.6-11.9-.5h-.3Z"/>
  <path class="st0" d="M28.9,49.8c-.4,0-.8-.3-.8-.8s.4-.8.8-.8.8.4.8.8-.4.8-.8.8ZM28.9,48.7c-.2,0-.3,0-.3.3s.1.3.3.3.3,0,.3-.3-.1-.3-.3-.3Z"/>
  <path class="st0" d="M29.8,45.2c-.2,0-.4,0-.6,0-.5-.3-.7-1-.4-1.5.1-.2.4-.4.7-.5.3,0,.6,0,.8,0,.2,0,.4.4.5.7s0,.6-.1.8-.4.4-.7.5h-.3.1ZM29.8,43.5h-.1c-.1,0-.3,0-.4.3-.2.3,0,.6.2.8.1,0,.3,0,.4,0s.3,0,.4-.3c0,0,.1-.3,0-.5s-.1-.3-.3-.4h-.3,0Z"/>
  <path class="st0" d="M26.7,42.4c-.2,0-.4,0-.6,0s-.4-.4-.5-.7c0-.3,0-.6.1-.8s.4-.4.7-.5c.3,0,.6,0,.8,0,.2,0,.4.4.5.7s0,.6-.1.8-.4.4-.7.5h-.3.1ZM26.7,40.7h-.2c-.2,0-.3,0-.4.3v.5c0,0,.1.3.3.4h0c.1,0,.3,0,.4,0,.2,0,.3,0,.4-.3v-.5c0,0-.1-.3-.3-.4h-.3.1Z"/>
  <path class="st0" d="M28.1,37.4c-.4,0-.8-.4-.8-.8s.3-.8.8-.8.8.4.8.8-.4.8-.8.8ZM28.1,36.4c-.2,0-.3,0-.3.3s.1.3.3.3.3,0,.3-.3-.1-.3-.3-.3Z"/>
  <path class="st0" d="M89.1,94.2c-2-2.6-6.8-2.4-9.5-2.1-1.9.2-4.6-6.1-5.9-12-.2-1-.5-2.2-.9-3.5-1.5-5.2-3.7-13.1-.5-16.1,4.7-4.4,2.8-13-1.4-24.5-1.6-4.3-3-8.5-4.1-12.2-2.1-6.6-3.4-11.6-3.5-11.8,0,0,0-.2-.2-.3-1.2-1.3-8.3.6-10.5,1.3s-9.2,2.7-9.6,4.5v.3c0,.3,1.6,5.2,3.3,11.9,1,3.8,2,8.1,2.9,12.5,2.4,11.7,5.3,19.9,11.3,21.5,0,0,.3,0,.4,0,4.3.9,6.5,8.8,8,13.9.4,1.4.7,2.5,1,3.5,2,5.7,3,12.5,1.3,13.3-2.5,1.1-6.7,3.5-7,6.8,0,0,0,.3,0,.4,0,0,.2.2.3.2.2,0,5.4.3,12.4-1.7l.5-.2c7-2,11.2-4.9,11.4-5.1,0,0,.2-.2.2-.3v-.4ZM52.8,13.9c5.2-1.5,8.3-1.8,9.3-1.6-.7.6-3.6,2-8.7,3.5s-8.3,1.8-9.3,1.6c.7-.6,3.6-2,8.7-3.5ZM44.2,18.4c2.4.3,7.6-1.1,9.4-1.6s7-2.1,8.9-3.6c.5,1.7,1.5,5.5,3,10.2-2.5-.3-9.2,1.6-9.5,1.7s-7,2-9,3.6c-1.2-4.8-2.3-8.6-2.8-10.3ZM47.1,29.2c.7-.7,3.7-2.1,9-3.6s8.5-1.8,9.5-1.7c0,.1,0,.2,0,.4-.8.7-3.8,2.1-9,3.6s-8.6,1.8-9.6,1.7v-.4ZM77,99.1c-5.7,1.7-10.2,1.7-11.7,1.7.7-2.6,4.6-4.7,6.3-5.4,2.7-1.2,1.1-8.2,0-12s-.8-2.5-.8-2.5c-.3-.9-.7-2.1-1-3.4-1.2-4.2-2.7-9.6-5.4-12.6.7,0,1.4-.2,2-.4s1.4-.4,1.4-.5c0,0,.2-.2,0-.3,0,0-.2-.2-.3,0,0,0-2.3.9-3.7.8-.3-.3-.7-.6-1.1-.8,1.3,0,2.7-.5,3.5-.7s.9-.3.9-.3c0,0,.2-.2.2-.3s-.2-.2-.3-.2-2.9,1-5.2,1c-.3,0-.6-.2-.9-.3-5-1-8.1-7.1-10.9-20.8-.9-4.2-1.8-8.3-2.7-11.9,2.5.3,9.3-1.6,9.6-1.7s7.1-2,9-3.6c1.1,3.5,2.5,7.6,3.9,11.6,4.8,13.2,5.3,20,1.6,23.5-3.6,3.4-1.4,11.3.2,17.1.4,1.3.7,2.5.9,3.5,0,0,.2,1.1.7,2.5,1.1,3.8,3.4,10.6,6.3,10.2,1.9-.3,6.2-.6,8.2,1.3-1.3.8-5.2,3.2-10.9,4.7h.1Z"/>
  <path class="st0" d="M68.2,47.3c-.4.2-.9,0-1.1-.4s0-.9.4-1.1.9,0,1.1.4,0,.9-.4,1.1ZM67.7,46.4c0,0-.2.2,0,.4s.2.2.4,0,.2-.2,0-.4-.2-.2-.4,0Z"/>
  <path class="st0" d="M67,42.8c-.2,0-.4,0-.6,0-.6,0-1.1-.6-1-1.2,0-.3.2-.6.4-.8.2-.2.5-.3.8-.3s.6.2.7.4.3.5.3.8-.2.6-.4.8c0,0-.2,0-.2.2h0ZM66.2,41.3h0c0,0-.2.2-.2.4,0,.3.2.6.5.6s.3,0,.4,0,.2-.2.2-.4,0-.3,0-.4-.2-.2-.4-.2h-.3Z"/>
  <path class="st0" d="M63,41.7c-.2,0-.4,0-.6,0-.3,0-.6-.2-.7-.4-.2-.2-.3-.5-.3-.8s.2-.6.4-.7c.2-.2.5-.3.8-.3s.6.2.7.4.3.5.3.8-.2.6-.4.7c0,0-.2,0-.2.2h0ZM62.3,40.1h0c0,0-.2.2-.2.4s0,.3,0,.4c0,0,.2.2.4.2h0c.2,0,.3,0,.4,0,0,0,.2-.2.2-.4s0-.3,0-.4c0,0-.2-.2-.4-.2h-.3Z"/>
  <path class="st0" d="M62.1,36.6c-.4.2-.9,0-1.1-.4s0-.9.4-1.1.9,0,1.1.4,0,.9-.4,1.1ZM61.6,35.6c0,0-.2.2,0,.4s.2.2.4,0,.2-.2,0-.4-.2-.2-.4,0Z"/>
</svg>