<?xml version="1.0" encoding="UTF-8"?>
<svg id="Calque_2" data-name="Calque 2" xmlns="http://www.w3.org/2000/svg" viewBox="0 0 361.59 799.71">
  <defs>
    <style>
      .cls-1 {
        fill: #fff;
      }
    </style>
  </defs>
  <path class="cls-1" d="M361.03,419.05c-1.12-6.72-3.26-9.44-6-17-2.73-7.54-1.42-7.13-5-21-2.54-9.82-5.06-17.28-7-23-2.87-8.48-2.62-6.76-7-19-5.95-16.63-6.55-20.17-11-25-1.46-1.58-5.05-5.52-11-8-9.32-3.89-14.6-.14-20-4-4.51-3.22-3.49-7.73-7-21-4.27-16.15-7.02-14.16-9-25-2.6-14.22,2.17-17.45-1-32-1.84-8.43-2.9-13.29-7-18-8.03-9.21-21.99-11.31-35-21-1.07-.8-3.08-2.35-4-5-1.86-5.37,2.14-11.22,4-14,6.91-10.3,12.48-21.44,19-32,1.49-2.42,5.33-10.28,13-26,6.61-13.54,12.83-26.72,14-40,.29-3.28.52-9.45-3-15-.83-1.31-2.3-3.57-5-5-4.22-2.23-8.42-.85-13,0-11.08,2.05-11.66-1.38-26,0-2.37.23-6.91,1.15-16,3,0,0-9.33,1.9-30,2-.71,0-2.44-.01-3-1-.27-.48-.13-1.02,0-2,.17-1.29.62-2.09,1-3,.67-1.62.72-2.65,1-4,.96-4.63,7-24.3,7-26v-3c.17-.94.73-1.13,1-2,.13-.41.04-.48,0-2-.03-1.07-.04-1.61,0-2,.09-.84.39-1.9,1-4,.09-.3.23-.77,0-1-.25-.25-.81-.06-1,0-2.07.62-5.57-1.12-7-2-1.05-.65-1.64-1.23-2-1-.37.23,0,1,0,2,0,2.89-3.04,3.92-4,7-.14.44-.33,1.23-1,2-.55.63-.85.58-1,1-.38,1.04,1.27,1.9,1,3-.22.92-1.48.82-2,2-.3.68.09,1.11,0,2-.2,2.06-.94,3.17-2,6-.2.54-.64,1.71-1,3-.84,2.98-.95,5.33-1,6-.17,2.3-1.18,6.34-5,14v1c0,.33-.02.67,0,1,.03.69.13.86,0,1-.19.21-.57-.05-1,0-1.23.15-2.84.91-3,2-.07.5.2.75,0,1-.23.28-.72.13-2,0-1.12-.12-1.68-.17-2,0-.71.39-.23,1.25-1,2-.85.83-1.9.87-4,2-.28.15-.8.44-1,1-.03.07-.18.52,0,1,.21.57.66.55,1,1,.44.59.03,1.09,0,3-.02,1.26.16,1.33,0,2-.25,1.07-.74,1.06-1,2-.41,1.46.54,2.22,0,3-.44.63-1.19.19-2,1-.21.21-.95.95-1,2-.06,1.31,1.02,1.63,1,3-.01.72-.32,1.64-1,2-.72.38-1.25-.19-2,0-1.25.32-1.93,2.48-2,4-.16,3.57,2.87,7.12,5,7,.38-.02.92-.17,1,0,.12.26-1.12.74-2,2-.91,1.29-.99,2.78-1,3-.07,1.47.51,2.13,0,3-.33.56-.66.44-1,1-.55.89.1,1.48,0,3-.13,1.97-1.29,2.36-1,4,.07.39.21.78,0,1-.27.29-.77-.16-2,0-.4.05-.66.12-1,0-.41-.14-.63-.49-1-1-.72-.97-.45-1.39-1-2-.76-.84-2.06-.93-3-1-.36-.03-.7-.02-1,0-.41.34-1.09.8-2,1-.92.21-1.43.01-2,0-2.85-.03-4.05,4.86-7,5-.35.02-.77-.03-2,0-1.33.03-1.5.11-2,0-.61-.13-.78-.33-2-1-.98-.54-1.47-.83-2-1-1.52-.49-2.66-.31-3-1-.18-.37.13-.6,0-1-.26-.79-1.16-1.28-5-2-5.35-1.01-6.42-.59-7,0-.42.42-.48.82-1,1-.8.27-1.51-.38-3,0h-.01c-.17.05-1.68.44-2.99,1-.95.4-1.43.75-2,1-3.72,1.61-6.88,1.53-7,3-.03.35.16.59,0,1-.46,1.18-2.68.92-3,2-.13.44.2.63,0,1-.37.68-1.63.32-2,1-.19.35.11.5,0,1-.22,1.01-1.55.96-2,2-.36.83.36,1.17,0,2-.46,1.06-1.95,1.02-2,2v2c.04.34.11.62,0,1-.12.41-.37.85-2,2-.51.36-1.02.62-1,1,.02.43.71.51,1,1,.54.92-.71,2.62-1,3-5.77,7.64-6.75,8.14-7,10-.34,2.54,1.16,4,0,7-.45,1.17-.67.94-1,2-.6,1.97-.01,3.37,0,7v4c-.02,2.68-.8,5.34-1,6-.62,2.07-.88,1.9-1,3-.21,2,.7,2.21,1,5,.21,1.9-.2,1.95,0,5,.07,1.05.14,1.38,0,2-.26,1.16-.87,1.63-1,3-.02.23,0,.29,0,1v3c-.07,2.15-.39,2.67,0,3,.55.47,1.42-.39,2,0,1.22.82-.63,5.97-1,7-.73,2.03-1.22,2.77-1,4,.25,1.38,1.21,2.37,2,3,1.23,2.45,1,3,1,3-.26.62-.87.5-1,1-.24.93,1.82,1.5,2,3,.1.81-.48.89-1,3-.38,1.57-.15,1.9,0,2,.11.08.41.05,1,0,.7-.06.88-.12,1,0,.21.21-.11.6,0,1,.18.67,1.36.67,2,1,1.23.63,1.01,2.74,1,10,0,5.54.12,5.56,0,6-.04.13-.17.55,0,1,.22.57.69.55,1,1,.68.97-.52,2.6,0,3,.29.22.77-.22,1,0,.33.32-.16,1.76-1,2-.14.04-.43.03-1,0-.77-.04-.92-.09-1,0-.27.3.71,1.6,1,2,1.22,1.7,1.52,3.36,2,6,.68,3.75.15,7.74-1,8-.36.08-.67-.22-1,0-.47.32-.58,1.45,0,2,.55.53,1.49.32,2,0,.64-.4.63-.98,1-1,.56-.03,1.34,1.27,1,2-.22.47-.76.41-1,1-.2.47-.02.94,0,1,.14.36.36.46,1,1,.64.54.97.8,1,1,.1.64-.66,1.01-1,2-.1.3-.17.66,0,2,.35,2.83.96,3.79,1,6,.01.61,0,1,0,1-.05,1.91-.35,2.38,0,3,.32.56.72.41,1,1,.33.7.16,1.41,0,2-.89,3.36-1.44,4.61-1,5,.1.08.18.08,1,0,2.17-.21,2.75-.31,3,0,.23.28.07.74,0,1-.53,1.9.7,2.67,1,6,.07.79.23,3.3,0,5-.02.14-.07.52,0,1,.15.98.69,1.48,1,2,.62,1.03.37,2.21,0,4-.46,2.19-1.42,3.69-1,4,.2.15.48-.16,1,0,.64.19.95.88,1,1,.42.97-.12,1.95,0,2,.12.04.74-.79,1-2,.12-.57.01-.51,0-3-.01-1.68.05-1.5,0-2-.05-.58-.13-.94,0-1,.23-.11.88.85,1,1,.56.73.81,1.42,1,2,.86,2.68.38,3.08,1,4,.95,1.41,2.27.77,3,2,1.04,1.75-.93,4.21,0,5,.52.44,1.17-.32,2,0,2.2.84,1.24,7.57,3,8,.38.09.56-.18,1,0,.86.36,1.2,1.85,1,3-.18,1.08-.82,1.8-1,2-2.32,2.56-7.6,6.03-9,7-3.41,2.36-5.58,4.94-9,9-1.47,1.75-1.54,2-4,5-1.77,2.15-3.37,3.97-6,7-6.9,7.95-10.4,11.97-13,14-2.32,1.82-3.81,2.61-6,5-1.25,1.36-2.04,2.57-4,4-1.67,1.22-3.26,2.34-5,2-.41-.08-.44-.17-2-1-2.46-1.31-2.73-1.27-4-2-.9-.51-2.49-1.43-4-3-1.44-1.49-1.18-1.87-3-4-.59-.69-1.55-1.8-3-3-1.36-1.12-1.93-1.31-4-3-1.27-1.04-1.66-1.46-2-2-.71-1.14-.6-1.83-1-3-.58-1.71-1.38-1.87-3-4-2.13-2.81-1.58-3.64-3-5-.99-.96-2.74-1.97-6-2-.59,1.43-1.22,3.53-1,6,.15,1.72.63,2.7,1,4,1.04,3.63.07,5.61,0,9-.15,7.89,4.81,12.31,3,14-.76.71-2.2.47-5,0-1.31-.22-4.69-.93-5-1-1.43-.3-2.28-.5-3,0-.82.56-.96,1.65-1,2-.13,1.01.18,2.23,1,3,.98.92,1.92.45,4,1,1.12.3.83.42,4,2,3.22,1.6,4.12,1.76,5,3,.6.85.38,1.05,1,2,1.24,1.89,3.19,2.68,4,3,4.42,1.78,7.24-.98,13,0,4.23.72,4.11,2.43,9,3,1.84.21,1.88-.03,7,0,6.43.03,6.39.41,8,0,2.76-.71,3.34-1.94,8-5,1.68-1.1,2.32-1.41,7-4,11.46-6.34,10.42-6.03,16-9,10.99-5.85,13.08-5.8,18-10,2.78-2.37,3.31-3.38,6-5,5.83-3.5,12.95-4.52,13-7,.01-.62-.42-1.28,0-2,.48-.83,1.65-.96,2-1,.09-.01,2.19-.22,3,1,.62.94-.19,1.69,0,4,.1,1.18.19,2.3,1,3,1.4,1.21,3.99.31,4,0,0-.2-1.07-.44-2-1-.06-.04-.17-.11-.3-.21-.34-.26-.62-.6-.7-.79-.23-.52.43-1.26,1-2,1.62-2.11,1.25-2.71,2-3,1.66-.65,4.85,1.72,5,4,.06.93-.4,1.6,0,2,.57.56,1.74-.53,3,0,1.15.48.95,1.69,2,2,.67.2.76-.3,3-1,1.1-.35,1.75-.44,2-1,.12-.28.14-.67,0-1-.27-.62-.98-.64-1-1-.02-.39.83-.46,1-1,.2-.63-.8-1.06-1-2-.26-1.24.93-2.97,2-3,1.48-.04,2.47,3.2,3,3,.24-.09.1-.82,0-3-.08-1.63-.11-2.45,0-3,.32-1.54.94-1.65,1-3,.04-1.07-.33-1.46,0-2,.46-.74,1.36-.33,2-1,.82-.86.36-2.62,0-4-.43-1.66-.82-1.68-1-3-.22-1.57.28-1.84,0-3-.41-1.69-1.59-1.66-2-3-.64-2.11,2.06-2.96,2-6-.03-1.48-.71-3.96-1-5-.16-.59-.4-1.39,0-2,.5-.77,1.47-.41,2-1,.94-1.04-1.14-3.18-1-6,.15-3,2.73-5.15,3-5,.33.19-2.38,3.91-1,6,.52.79,1.57,1.27,2,1,.39-.24.15-1,.19-2.78,0,0-.07-.93.2-2.31.43-2.14,1.1-3.73,1.61-4.91.84-1.96,1.04-1.86,2-4,1.43-3.17,1-3.39,2-5,1.56-2.5,3-2.63,3-4,0-1.53-1.81-1.41-3-4-.86-1.87-1.09-4.48-1-6,.02-.32.05-.58,0-1-.14-1.15-.71-1.61-1-3-.16-.74-.06-.92,0-1,.42-.55,1.84-.06,2,0l2,2c.89.89,5.19,5.09,9,8,5.24,4.01,5.5,2.49,10,6,4.79,3.74,3.87,4.98,9,9,3.86,3.02,5.22,2.99,8,6,1.75,1.9,4.69,5.1,4,8-.68,2.87-4.56,3.92-7,5-9.81,4.34-13.64,16.8-18,31-4.01,13.05-1.76,14.04-5,25-4.37,14.77-11.83,24.34-16,30-11.18,15.17-22.45,36.78-45,80-8.03,15.39-21.19,40.62-33,70-4.49,11.17-9.13,23.8-18,43-3.38,7.31-6.32,14.83-10,22-2.95,5.74-12.37,23.53-12,34,.02.43.07,1.51,0,3-.27,5.7-1.95,8.99-3,13-1.07,4.12-.46,5.12-1,11-1.07,11.7-3.86,11.9-5,22-.97,8.66,1.06,8.69,0,21-.43,5.04-.88,6.2-1,11-.17,6.7.58,8.49,0,14-.51,4.83-1.22,4.64-2,10-.29,1.97-2.08,14.93,1,16,1.38.48,2.38-1.89,8-6,2.88-2.1,3.34-2.02,8-5,3.59-2.3,6.04-4.1,10-7,8.51-6.24,11.04-8.72,12-8,1.22.92-2.87,5.02-2,11,.21,1.44,2.48,4.98,7,12,3.55,5.51,4.16,6.21,5,7,2.55,2.39,4.29,2.81,5,5,.91,2.81-1.12,4.63,0,6,1.42,1.74,6.38.85,7-1,.24-.72-.32-1.17-1-3-.51-1.37-.67-2.58-1-5-.56-4.12-.84-6.19,0-7,1.21-1.17,3.73-.4,5,0,6.44,2.05,11.14,7.66,14,12,.58.44,2.25,1.61,3,2,1.5.78,2.84.89,4,1,9.87.91,5.21.92,10,1,7.35.12,13,0,13,0,7.18-.15,5.16.08,19,0,11.45-.06,12.34-.21,17,0,2.93.13,1.79.17,13,1,10.51.78,14.08.98,19,0,4.01-.8,3.27-1.26,7-2,11.2-2.22,19.43,1.63,20,0,.28-.79-1.3-2.74-3-3-.21-.03-.36-.03-.4-.03-1.28-.09-5.37-.4-8.6-.97-4.76-.84-10.65-1.87-13-6-.98-1.72-.84-3.11-1-5-.38-4.59-2.04-6.8-8-17-8.88-15.19-9.68-17.95-10-21-.29-2.82-.16-5.73,0-9,.39-8.26,1.52-9.14,1-14-.54-5.02-1.96-6.15-1-9,.91-2.7,3.32-5,6-6,2.28-.85,4-.49,17,4,8.47,2.92,9.08,3.23,12,4,5.3,1.4,5.69,1.02,7,2,3.09,2.3,2.88,5.82,5,17,1.22,6.45,1.86,9.7,3,11,4.51,5.11,14.76,5.37,21,2,.27-.15,2.18-1.43,6-4,4.42-2.97,5.64-3.85,7-5,2.68-2.26,3.47-3.51,5-5,6.37-6.2,11.61-2.87,17-8,4.45-4.23,2.4-7.93,7-12,3.72-3.3,8.55-3.95,12-4,.07-.17,4.76-8.81,7-18,2.13-8.74.28-10.69,3-21,1.03-3.9,1.81-5.56,3-9,4.8-13.82,2.83-17.46,7-35,2.97-12.49,4.45-18.73,7-23,1.76-2.95,5.13-7.78,6-15,.42-3.5.09-6.19,0-7-.92-8.05.22-20.02,2-44,1.69-22.77,2.8-37.79,6-58,2.36-14.91,2.95-30.05,5-45,.34-2.44,1.08-7.53,0-14ZM221.03,119.05c-2.91,1.84-4.85.86-7,3-2.1,2.08-.88,3.63-3,6-2.2,2.46-3.92,1.26-7,4-2.26,2.01-1.4,2.7-4,5-2.07,1.83-3.61,2.27-4,4-.3,1.34.46,1.79,0,3-.63,1.66-2.3,1.42-3,3-.75,1.68.78,2.75,0,4-.48.77-1.21.6-5,2-1.51.56-1.76.72-2,1-1.25,1.43-.45,3.84-1,4-.31.09-.75-.62-1-1-2.11-3.18-3.85-2.66-5-5-1.09-2.22.32-3.03-1-5-.75-1.12-1.68-1.56-2-3-.13-.6-.06-.93,0-2,.08-1.33,0-2.67,0-4v-8c0-1.33-.06-2.67,0-4,.23-5.22,1.26-7.08,0-9-.33-.5-1.02-1.31-2-2-.7-.49-1.24-.87-2-1-1.32-.23-1.81.54-4,1-.62.13-2.73.57-3,0-.23-.48.8-1.81,2-2,.82-.13,1.26.33,2,0,.4-.18.61-.47,1-1,.3-.4.79-1.08,1-2,.37-1.62-.49-2.59,0-3,.45-.38,1.2.41,2,0,.74-.38.92-1.5,1-2,.03-.2.05-.33,0-2v-2l1-1,1-2c-.91-.57-1.05-.85-1-1,.22-.72,4.85,1.06,7-1,.58-.56.74-1.17,1-2,.42-1.35,3.34-10.68,7-11,.87-.08,1.81.36,2,0,.21-.4-.93-.96-1-2-.08-1.27,1.47-2.64,3-3,.79-.19.82.08,2,0,2.22-.16,2.51-1.12,4-1,1.61.14,2.01,1.33,3,1,.94-.32.86-1.5,2-2,.76-.33,1.51-.12,2,0h6c7.01,0,11.28-.72,18,0,4.88.52,10.09,1.14,11,4,.5,1.57-.71,3.52-1,4-1.3,2.18-2.79,2.05-4,4-1.08,1.74-.47,2.77-1,5-.76,3.17-2.62,3.72-5,7-2.93,4.04-1.39,5-5,12-1.96,3.8-2.98,5.73-5,7Z"/>
</svg>