<?xml version="1.0" encoding="UTF-8"?>
<svg id="Calque_1" xmlns="http://www.w3.org/2000/svg" version="1.1" viewBox="0 0 64.1 80.6">
  <!-- Generator: Adobe Illustrator 29.1.0, SVG Export Plug-In . SVG Version: 2.1.0 Build 142)  -->
  <defs>
    <style>
      .st0 {
        fill: #fff;
      }
    </style>
  </defs>
  <path class="st0" d="M28.7,55.2s-.2,0-.3,0c-.6.2-1.2.4-1.8.6-.1,0-.2.2-.2.3h0s.1,0,.2,0,0,0,0,0c.6-.2,1.2-.4,1.9-.6.1,0,.2-.2.1-.3h0Z"/>
  <path class="st0" d="M5.7,55.8c-.6-.2-1.2-.4-1.8-.6h-.3c0,.2,0,.3,0,.4.6.2,1.2.4,1.8.6h0c0,0,.2,0,.2-.2s0-.3-.2-.3h.2Z"/>
  <path class="st0" d="M25.6,55.9c-.6.2-1.2.3-1.9.4-.1,0-.2,0-.2.2h0c0,0,.1.2.2.2h0c.6,0,1.3-.3,1.9-.4.1,0,.2-.2.2-.3s-.2-.2-.3-.2h0Z"/>
  <path class="st0" d="M8.5,56.5c-.6,0-1.3-.3-1.9-.4h-.3c0,0,0,.3.2.3.6.2,1.2.3,1.9.4h0s.2,0,.2,0h0c0,0,0-.3-.2-.3h.1Z"/>
  <path class="st0" d="M23.1,56.7s-.2,0-.3,0c-.6,0-1.3.2-1.9.3-.1,0-.2,0-.2.3h0s.1,0,.2,0h0c.6,0,1.3-.2,1.9-.3.1,0,.2-.2.2-.3h0Z"/>
  <path class="st0" d="M11.4,56.9c-.6,0-1.3-.2-1.9-.3-.1,0-.3,0-.3.2s0,.3.2.3c.6,0,1.3.2,1.9.3h0c.1,0,.2,0,.2-.2s0-.3-.2-.3h.1Z"/>
  <path class="st0" d="M20,57c-.6,0-1.3,0-1.9.2-.1,0-.2,0-.2.3s.1.2.2.2h0c.6,0,1.3,0,1.9-.2.1,0,.2,0,.2-.2h0c0-.2-.1-.3-.3-.2h0Z"/>
  <path class="st0" d="M14.2,57.2c-.6,0-1.3,0-1.9,0-.1,0-.3,0-.3.2s0,.3.2.3c.6,0,1.3,0,1.9,0h0c.1,0,.2,0,.2-.2s-.1-.3-.2-.3h.1Z"/>
  <path class="st0" d="M63.3,71h0c-1.2-4.2-2.6-4.2-9.8-4.5-1.1,0-2.4,0-3.8-.2-10-.5-18.3-11.1-18.8-11.8h0c-4.7-9.3,1.1-42.5,1.1-42.9h0c-.7-7.6-10.6-9.1-12.9-9.4v-.4C19,.8,18.2,0,17.2,0h-2.1C14.2,0,13.4.8,13.4,1.7v.4C11.1,2.4,1.2,4,.4,11.4H.4c0,.5,5.9,33.8,1.1,43-2.5,4.8-1.4,11.4-1,13.2h0c-.4.4-.2,1.1,0,1.5.3.8.5,1.4,1.1,1.3.8,1.5,2.2,4.6,2.1,5.9,0,.2,0,.4.4.5.3,0,7.9,2.3,14.7,0,.2,0,.4-.3.3-.6-.2-.7-.3-2,.1-2.5,0,0,.2-.2.6-.2s2.1.5,4,1c5,1.4,12.7,3.6,18.6,3.6s2.7,0,3.8-.4c1.7-.4,3.5-.8,5.4-1.3,7.2-1.6,11.6-2.7,12.2-4.4,0-.3,0-.7-.2-1.2h0l-.3.2ZM14.4,1.7c0-.4.3-.8.8-.8h2.1c.4,0,.8.3.8.8v14.9c0,.4-.3.8-.8.8h-2.1c-.4,0-.8-.3-.8-.8,0,0,0-14.9,0-14.9ZM2.4,55.1c0,0,.3,0,.5.2h.2c0,0,0-.3,0-.3-.2,0-.3,0-.5-.2,1.1-2.4,1.7-6,1.8-10.2C4.8,31.6,1.6,13.2,1.3,11.6,2.2,5,11.1,3.4,13.4,3.1v13.5c0,1,.8,1.8,1.8,1.8h.8v1.5c0,.1.1.2.3.2s.2-.1.2-.2v-1.5h.8c1,0,1.8-.8,1.8-1.8V3.1c2.3.3,11.2,1.9,12,8.3-.3,1.6-3.4,19.9-3,33,.1,4.2.7,7.8,1.8,10.2-.1,0-.3,0-.5.2-.1,0-.2.2-.1.3h.2c.1,0,0,0,0,0,.2,0,.4,0,.5-.2.9,1.2,9.2,11.8,19.6,12.2,1.4,0,2.7,0,3.8.2,6.8.2,7.8.3,8.8,3.4-1.8.7-9.3,3.3-17.9,4.6-6.1.9-13.4-1.4-21.1-3.9-7.4-2.4-15-4.9-21.7-4.2-.3-1.6-1.3-7.8.9-12.3v.2ZM51.2,75.6c-1.8.4-3.7.8-5.4,1.3-5.5,1.4-16.1-1.6-21.8-3.1-2.4-.7-3.6-1-4.2-1h0c-.5,0-1,.2-1.3.6-.6.8-.5,2.2-.4,2.9-5.6,1.7-11.8.3-13.3,0,0-2.1-2.2-5.9-2.4-6.4,0-.2-.3-.3-.5-.3h-.1s-.1-.3-.2-.6c0-.2-.1-.4-.1-.5,6.5-.8,14.2,1.7,21.7,4.1,7.8,2.5,15.2,4.9,21.5,3.9,8.8-1.3,16.3-4,18.1-4.7h0c-.4,1.2-6.8,2.7-11.5,3.7h-.1Z"/>
  <path class="st0" d="M17.4,57.4c0,0-.1.3-.2.3h-1.9c-.1,0-.2,0-.2-.3s.1-.2.2-.2h.8v-.3c0,0,.1-.2.2-.2s.2,0,.2.2v.3h.7c.1,0,.2,0,.2.2Z"/>
  <path class="st0" d="M16.1,57.7h0Z"/>
  <path class="st0" d="M16.2,53.7c-.1,0-.2,0-.2.2v2c0,0,.1.2.2.2s.2,0,.2-.2v-2c0,0-.1-.2-.2-.2Z"/>
  <path class="st0" d="M16.2,50.7c-.1,0-.2,0-.2.2v2c0,0,.1.2.2.2s.2,0,.2-.2v-2c0,0-.1-.2-.2-.2Z"/>
  <path class="st0" d="M16.2,47.7c-.1,0-.2,0-.2.2v2c0,0,.1.2.2.2s.2,0,.2-.2v-2c0,0-.1-.2-.2-.2Z"/>
  <path class="st0" d="M16.2,41.7c-.1,0-.2,0-.2.2v2c0,0,.1.2.2.2s.2,0,.2-.2v-2c0,0-.1-.2-.2-.2Z"/>
  <path class="st0" d="M16.2,44.7c-.1,0-.2,0-.2.2v2c0,0,.1.2.2.2s.2,0,.2-.2v-2c0,0-.1-.2-.2-.2Z"/>
  <path class="st0" d="M16.2,41.7c-.1,0-.2,0-.2.2v2c0,0,.1.2.2.2s.2,0,.2-.2v-2c0,0-.1-.2-.2-.2Z"/>
  <path class="st0" d="M16.2,41.7c-.1,0-.2,0-.2.2v2c0,0,.1.2.2.2s.2,0,.2-.2v-2c0,0-.1-.2-.2-.2Z"/>
  <path class="st0" d="M16.2,38.7c-.1,0-.2,0-.2.2v2c0,0,.1.2.2.2s.2,0,.2-.2v-2c0,0-.1-.2-.2-.2Z"/>
  <path class="st0" d="M16.2,35.7c-.1,0-.2,0-.2.2v2c0,0,.1.2.2.2s.2,0,.2-.2v-2c0,0-.1-.2-.2-.2Z"/>
  <path class="st0" d="M16.2,32.7c-.1,0-.2,0-.2.2v2c0,0,.1.2.2.2s.2,0,.2-.2v-2c0,0-.1-.2-.2-.2Z"/>
  <path class="st0" d="M16.2,29.7c-.1,0-.2.1-.2.2v2c0,0,.1.2.2.2s.2,0,.2-.2v-2c0-.1-.1-.2-.2-.2Z"/>
  <path class="st0" d="M16.2,26.7c-.1,0-.2.1-.2.2v2c0,.1.1.2.2.2s.2-.1.2-.2v-2c0-.1-.1-.2-.2-.2Z"/>
  <path class="st0" d="M16.2,23.7c-.1,0-.2.1-.2.2v2c0,.1.1.2.2.2s.2-.1.2-.2v-2c0-.1-.1-.2-.2-.2Z"/>
  <path class="st0" d="M16.2,20.7c-.1,0-.2.1-.2.2v2c0,.1.1.2.2.2s.2-.1.2-.2v-2c0-.1-.1-.2-.2-.2Z"/>
  <path class="st0" d="M15.4,52s-1.7-.6-2.5-2.4c-.7-1.4-.6-3.2.2-5.3,1.5-3.9,1.9-8.9,1-12.5-.5-2.2-1.6-4-3.1-4.6-1.2-.5-2.3,0-3.1,1.4-1.1,1.9-1.4,4.8-.5,5.4,0,0,.2,0,.3,0,.3.2,1.5.9,3.1.4.8-.3,1.2.5,1.6,1.7.2.6.4,1.1.7,1.3.4.4-.5,4.5-1.2,6.3-.5-.9-1.6-2.6-2.9-2.5-1,0-1.7,1-2.4,3h0c0,.2,0,.3,0,.3h.3s1.1-1.6,2.4-1.6h0c.8,0,1.5.5,2.2,1.6,0,0,.1,0,.2,0h.1c.3-.8,1.2-3.7,1.5-5.7.1-.9,0-1.6-.3-1.8-.2,0-.4-.6-.5-1.1-.4-1-.9-2.5-2.3-2-1,.3-1.8,0-2.2,0,.1,0,.2-.2.4-.3,1.8-1.7,2.5-4.1,2.2-5.1-.1-.4-.3-.5-.5-.5-.3,0-.7.1-1.1.6-1.2,1.3-1.5,2.9-1.3,3.4,0,.2.2.3.4.3s.4,0,.7-.5c.8-1.3,1.1-2.2,1.1-2.2,0-.1,0-.3-.2-.3s-.3,0-.3.2c0,0-.3.9-1.1,2.1,0,.1-.1.2-.2.2,0-.3,0-1.6,1.2-2.9.5-.5.6-.5.6-.5h.1c.2.8-.4,3-2.1,4.7,0,0-.4.3-.6.4h0c-.5-.4-.4-3,.7-4.8.5-.8,1.3-1.7,2.5-1.2,2.8,1.1,3.7,6.4,3,11.4-.2,1.8-.6,3.5-1.2,5.1-.9,2.2-.9,4.2-.2,5.8.9,2,2.7,2.6,2.8,2.6h0c.1,0,.2,0,.2-.2h0s0-.2-.2-.2h0l.4-.2ZM9.7,42.6h0c-.8,0-1.4.4-1.9.8.4-.9.9-1.5,1.5-1.5h0c.5,0,1,.4,1.4,1-.3-.2-.7-.3-1-.3Z"/>
  <path class="st0" d="M14.8,31.9h0c-.1,0-.2-.1-.2-.3,0,0,.7-6-2.9-7-4-1.1-5.9-6.9-5.7-10.4,0-.1,0-.2.3-.2s.2.1.2.3c-.2,3.4,1.5,8.9,5.3,9.9,4,1.1,3.3,7.3,3.3,7.6s-.1.2-.2.2h-.1Z"/>
  <path class="st0" d="M8.3,20.7s-.2,0-.2-.1c0,0-3.6-7.4,1-11.1.5-.3,1.4-.6,2.1.2.4.5.3,1.1,0,1.4-.3.4-.9.4-1.3.2,0,0-.2,0-.5.1-1.2.8-2.1,3.7-.9,9,0,.1,0,.2-.2.3h0ZM10.1,9.6c-.4,0-.7.2-.7.2-2.5,2-2.3,5.3-1.8,7.7-.5-4.9,1.2-6.4,1.6-6.6.4-.3.8-.3,1-.1.2.1.5,0,.6-.1.2-.2.1-.4,0-.7-.2-.2-.4-.3-.7-.3h0Z"/>
  <path class="st0" d="M23.2,41.4c-1.3,0-2.4,1.6-2.9,2.5-.7-1.8-1.6-5.9-1.2-6.3.3-.2.5-.7.7-1.3.5-1.2.8-2,1.6-1.7,1.6.5,2.8-.2,3.1-.4.1,0,.3,0,.4,0,.8-.7.5-3.6-.5-5.4-.8-1.4-1.9-1.9-3.1-1.4-1.5.6-2.6,2.4-3.1,4.6-.9,3.6-.5,8.6,1,12.5.8,2.1.9,3.9.2,5.3-.8,1.8-2.5,2.4-2.5,2.4-.1,0-.2,0-.2.2s0,0,0,0c0,0,.1.2.2.2s0,0,0,0c0,0,1.9-.7,2.8-2.6.7-1.6.7-3.5-.2-5.8-.6-1.6-1-3.3-1.2-5.1-.6-5.1.3-10.3,3-11.4,1.2-.5,2,.4,2.5,1.2,1,1.8,1.2,4.4.6,4.8h-.1c-.2,0-.4-.2-.5-.4-1.7-1.7-2.3-3.9-2.1-4.6,0,0,0-.1.1-.1,0,0,.2,0,.6.5,1.1,1.3,1.3,2.5,1.2,2.9l-.2-.2c-.8-1.2-1-2.1-1-2.1,0-.1-.2-.2-.3-.2s-.2.2-.2.3c0,0,.3.9,1.1,2.2.2.4.4.5.7.5s.3,0,.4-.3c.2-.6,0-2.1-1.3-3.4-.4-.5-.8-.7-1.1-.6-.1,0-.4.1-.5.5-.3,1,.4,3.3,2.2,5.1.1,0,.2.2.4.3-.5.2-1.2.4-2.2,0-1.4-.5-1.9,1-2.3,2-.2.5-.4,1-.5,1.1-.3.2-.4.9-.2,1.8.2,2,1.1,4.9,1.5,5.6h0q0,0,.1,0s.2,0,.2,0c.7-1,1.4-1.5,2.2-1.6h0c1.3,0,2.4,1.5,2.4,1.6,0,0,.2,0,.3,0,.1,0,.2-.2.1-.3-.6-2-1.4-3-2.4-3l.2.2ZM22.8,42.6h0c-.4,0-.7,0-1,.3.5-.5,1-1,1.5-.9.5,0,1,.5,1.5,1.5-.5-.4-1.2-.8-1.9-.8h-.1Z"/>
  <path class="st0" d="M17.6,31.9c-.1,0-.2,0-.2-.2,0-.3-.8-6.5,3.3-7.5,3.7-1,5.5-6.5,5.3-9.9,0-.1.1-.3.2-.3s.3.1.3.2c.2,3.6-1.7,9.4-5.6,10.4-3.6,1-2.9,7-2.9,7,0,.1,0,.3-.2.3h-.2Z"/>
  <path class="st0" d="M24.1,20.7h0c-.1,0-.2-.2-.2-.3,1.2-5.4.3-8.2-.9-9-.3-.2-.4-.2-.5-.1-.4.3-.9.2-1.3-.2-.3-.3-.4-.8,0-1.4.6-.8,1.6-.5,2.1-.2,4.6,3.7,1,11,1,11.1,0,0-.1.1-.2,0ZM22.5,10.7c.2,0,.5,0,.7.2.4.3,2.1,1.8,1.6,6.6.6-2.4.8-5.7-1.8-7.7,0,0-.9-.5-1.4.1-.2.2-.2.5,0,.7.1.2.4.2.6.1.1,0,.2-.1.3-.1h0Z"/>
</svg>