<?xml version="1.0" encoding="UTF-8"?>
<svg id="Calque_1" xmlns="http://www.w3.org/2000/svg" version="1.1" viewBox="0 0 86.9 54.9">
  <!-- Generator: Adobe Illustrator 29.1.0, SVG Export Plug-In . SVG Version: 2.1.0 Build 142)  -->
  <defs>
    <style>
      .st0 {
        fill: #fff;
      }
    </style>
  </defs>
  <path class="st0" d="M11.1,13.9l-1.2,2.8s0,.1-.1.1h-.2c-.1,0-.2-.2-.1-.3l1.1-2.8c0-.1.2-.2.3-.1.1,0,.2.2.1.3h0Z"/>
  <path class="st0" d="M6.6,23.5l-1.2,2.8s0,.1,0,.1h-.2c0,0-.2-.2,0-.3l1.2-2.8c0-.1.2-.2.3-.1,0,0,.2.2,0,.3Z"/>
  <path class="st0" d="M14.6,22.5s0,.1-.1.1h-.2l-2.8-1.2c-.1,0-.2-.2-.1-.3,0-.1.2-.2.3-.1l2.8,1.2c.1,0,.2.2.1.3h0Z"/>
  <path class="st0" d="M85.3,2.8s-1.4,0-1.6-.8c0-.2-.2-.3-.3-.4h-.5s-.3.2-.9.6l-.2-.5c.4-.3.5-.7.3-1.1-.2-.5-.8-.7-1.3-.5s-.8.8-.6,1.2c.2.4.6.6,1,.5l.3.6c-.4.2-.9.5-1.5.7l-.3-.7c.4-.3.5-.7.3-1.1-.2-.5-.8-.7-1.3-.5-.5.2-.8.8-.6,1.2.2.4.6.6,1,.5l.3.7c-.5.2-1.1.4-1.6.5l-.3-.6c.4-.3.5-.7.3-1.1-.2-.5-.8-.7-1.3-.5s-.8.8-.6,1.2c.2.4.6.6,1,.5l.2.6c-.2,0-.5,0-.7,0,0,0-.3,0-.3.2s0,.3,0,.4c0,0,.3,1.6-1.7,2.4h0c-.7.3-3.9,1.5-8,3-3.9,1.4-8.6,3.1-13,4.7-.9.3-1.8.6-2.7,1-1-3.6-3.8-8-7.5-9.5-2.2-.9-4.5-.7-6.7.7-6.5,4.2-8.4,3.9-13.4,3.3-.6,0-1.3-.1-2.1-.2-5.6-.6-10,.8-14.6,4.6-.9-1.3-1.8-3.1-2.8-5.5,0-.1-.2-.2-.3-.1h0c0,0-.2.2,0,.3,1.2,2.7,1.8,4.7,2,6.4l-.3.3c-.7.6-1.3,1.3-1.8,2l-1.5-.6c-.1,0-.3,0-.3.1s0,.3.1.3l1.5.6C.6,21.8-.4,26.1.1,31c.3,3.4,1.3,6.1,1.8,7.5l.6,1.6c.6,1.3,1.9,3.9,4,6.5,3.9,4.8,8.8,7.2,14.1,7,3.2,0,6-.6,8.3-1.6,2.8-1.2,5.1-3,7.2-5.6.5-.6.9-1.1,1.2-1.6.9.5,2.1,1.7,3.4,4.9l.2.5c0,0,.2.2.3,0h0c0,0,.2-.2,0-.3,0,0,0-.3-.2-.4h0c-1.5-3.7-1.3-5.5-.9-6.3.3-.6.8-.7.8-.7,0,0,.2-.2.2-.3h0c0-.2-.2-.2-.3,0,0,0-.4.3-1.1,0h0c2-2.1,4.1-3.2,9.6-4.5,2.5-.5,4.3-2,5.2-4.2,1.5-3.6.4-8.7-1.4-12,3.3-1.6,7-3.3,10.4-4.9,6.1-2.9,11.4-5.3,12.4-5.8,2-.9,3,.4,3,.4,0,.1.2.2.3.2h.4c.2-.1.4-.3.6-.4l.2.6c-.4.3-.5.7-.4,1.1.2.5.8.7,1.3.5s.8-.8.6-1.2c-.2-.4-.6-.6-1-.5l-.3-.6c.5-.3,1-.5,1.5-.7l.3.7c-.4.3-.5.7-.4,1.1.2.5.8.7,1.3.5s.8-.8.6-1.2c-.2-.4-.6-.6-1-.5l-.3-.7c.6-.2,1.1-.4,1.6-.5l.3.6c-.4.3-.5.7-.4,1.1.2.5.8.7,1.3.5s.8-.8.6-1.2c-.2-.4-.6-.6-1-.5l-.2-.6c.6-.2,1-.2,1-.2.2,0,.3-.1.4-.3v-.5c-.5-.7.6-1.7.6-1.7.2,0,.2-.4,0-.6l-1.1-2.7c0-.2-.3-.3-.5-.3h0v-.4ZM80.8,1.1c0-.2,0-.5.3-.6s.5,0,.6.2,0,.5-.3.6-.5,0-.6-.2h0ZM78.8,1.9c0-.2,0-.5.3-.6s.5,0,.6.2,0,.5-.3.6-.5,0-.6-.2h0ZM76.8,2.8c0-.2,0-.5.3-.6s.5,0,.6.2,0,.5-.3.6-.5,0-.6-.2h0ZM6,16.5c0-.4,0-.8-.2-1.2,0-.4-.2-.9-.3-1.4.2.4.5.8.7,1.1s.4.6.6.8h0c1.3,1.7,2.4,2.4,3.3,2.7.4.1.7.2.9.2-.2.2-.4.5-.6.8-.6,1.1-.9,3,0,6.5-1.8-3.1-3.4-4.3-4.6-4.6-.4-.1-.7-.1-.9-.2.2-.2.4-.5.6-.8.4-.8.7-2,.5-3.9h0ZM40.2,42.7c0,0-.2.2-.2.4-.3.6-.5,1.7,0,3.6-.8-1.2-1.5-1.8-2.1-2.2-.2,0-.4-.2-.6-.3h-.4s.2-.2.2-.4c.3-.6.5-1.7,0-3.6.5.8,1,1.3,1.5,1.7.3.2.6.4.8.5,0,0,.2,0,.3.2h.5ZM53.7,33c-.8,1.9-2.3,3.2-4.5,3.6-4.7,1-7.1,2-8.9,3.6l.3-.6c0,0,0-.3,0-.3s-.3,0-.3,0l-.7,1.6c-.2,0-.3.3-.4.5-.8-.7-1.8-2-2.8-4.5h0c0-.2,0-.4-.2-.5,0,0-.2-.2-.3,0h0c0,0-.2.2,0,.3l.2.5c1.5,3.6,1.3,5.4.9,6.2-.3.6-.8.7-.8.7,0,0-.2.2-.2.3h0c0,0,.2,0,.3,0,0,0,0,0,.4,0-.3.4-.6.8-.9,1.2-2.7,3.4-6.4,6.5-14.8,6.8-11.1.4-16.5-11.5-17.3-13.5l-.2-.6c-.8-1.8-4.6-12.1.9-19.7l.4.2h.2c0,0,0,0,0-.1,0-.1,0-.3,0-.3h-.3c.4-.6.8-1.1,1.3-1.6,0,1.5,0,2.5-.5,3.2-.5,1-1.3,1.2-1.3,1.2,0,0-.2.2-.2.3h0c0,.1.2.1.3,0,0,0,.7-.5,1.8,0,1.5.5,3.9,2.4,6.4,8.9,0,.1.2.2.3.1h0c.1,0,.2-.2.1-.3-2.8-6.4-2.5-9.4-1.7-10.8.4-.8.9-1.1,1.2-1.2h.2c.1,0,.2-.1.2-.3h0c0-.1-.2-.1-.3,0,0,0-.7.4-1.8,0-.8-.3-1.9-.9-3.1-2.5,5.5-4.6,9.9-4.9,13.9-4.4.8,0,1.4.2,2.1.2,5.2.6,7.3.9,14.1-3.5,1.9-1.2,3.8-1.4,5.8-.6,3.4,1.4,6,5.5,6.9,8.9-4.8,1.7-8.7,3.1-9.7,3.5h0c-1.8-1.3-4.2-1.6-6.5-.7-3.4,1.4-5.1,5.4-3.6,8.8s5.4,5.1,8.8,3.6c2.2-.9,3.7-2.9,4-5.1h0c1-.5,4.7-2.2,9.3-4.4,1.8,3,2.8,7.8,1.4,11.1h0l-.2.3ZM49.1,17.5l1.7,4c-.4.2-.9.4-1.3.6l-1.7-4.1c.4-.2.9-.3,1.3-.5ZM47.3,18.1l1.7,4.2-1.2.6-1.8-4.3c.4-.1.8-.3,1.2-.4h0ZM45.6,18.7l1.8,4.3c-.4.2-.8.4-1.1.5l-1.8-4.4c.4-.1.8-.3,1.2-.4h-.1ZM44,19.3l1.9,4.5c-.4.2-.7.3-1,.5l-1.9-4.6c.3-.1.7-.2,1.1-.4h0ZM41.1,20.3c.3-.1.8-.3,1.3-.5l1.9,4.7c-.5.2-.9.4-1.3.6,0-.9-.2-1.7-.5-2.6s-.8-1.6-1.5-2.2h0ZM41.7,22.9c.4,1,.5,2,.4,3-.3,1.9-1.5,3.7-3.5,4.5-2.9,1.2-6.3-.2-7.5-3.1s.2-6.3,3.1-7.5c2-.8,4.2-.4,5.8.8.8.6,1.4,1.4,1.8,2.3h0ZM52.9,20.5c-.2,0-.4.2-.6.3h0c-.3.1-.7.3-1,.5l-1.6-4c.3-.1.7-.2,1-.4h0c.2-.1.4-.2.6-.2l1.6,3.8h0ZM55,19.5c-.5.3-1.1.5-1.6.8l-1.5-3.8c.5-.2,1.1-.4,1.7-.6l1.5,3.6h-.1ZM56.9,18.6c-.5.2-1,.5-1.5.7l-1.5-3.6c.5-.2,1-.4,1.5-.6l1.4,3.4h0ZM58.9,17.6c-.5.2-1.1.5-1.6.8l-1.4-3.4c.5-.2,1.1-.4,1.7-.6l1.3,3.2h0ZM60.9,16.7c-.5.2-1,.5-1.5.7l-1.3-3.2c.5-.2,1-.4,1.5-.6l1.2,3h0ZM62.8,15.8c-.5.2-1,.5-1.5.7l-1.2-3c.5-.2,1-.4,1.6-.6l1.2,2.9h0ZM65.2,14.7c-.6.3-1.3.6-1.9.9l-1.2-2.8c.7-.2,1.4-.5,2-.7l1.1,2.6h0ZM67.5,13.6c-.6.3-1.2.6-1.8.8l-1.1-2.6c.6-.2,1.3-.4,1.8-.7l1,2.4h0ZM69.7,12.6c-.6.3-1.1.5-1.8.8l-1-2.3c.6-.2,1.2-.4,1.8-.6l.9,2.2h0ZM72,11.5c-.6.3-1.2.6-1.9.9l-.9-2.1c.7-.3,1.4-.5,2-.7l.8,2h0ZM74.5,10.3c-.5.3-1.2.6-2.1,1l-.8-1.9c.9-.3,1.6-.6,2.1-.8l.7,1.7h.1ZM81.7,11.9c0,.2,0,.5-.3.6s-.5,0-.6-.2,0-.5.3-.6.5,0,.6.2h0ZM83.7,11.1c0,.2,0,.5-.3.6s-.5,0-.6-.2,0-.5.3-.6.5,0,.6.2h0ZM85.6,10.3c0,.2,0,.5-.3.6s-.5,0-.6-.2,0-.5.3-.6.5,0,.6.2h0ZM85.8,5.8c-.4.5-.9,1.3-.7,2.1-1.2.3-3.7,1-5.6,2.3-.7-.6-2.1-1.2-3.9-.4,0,0-.4.2-.7.3l-.7-1.7c.3-.1.6-.2.7-.2h0c1.8-.8,2.3-2.1,2.4-3.1,2.2-.3,4.5-1.7,5.5-2.3.5.7,1.3.9,2,1l.8,2.1h0Z"/>
  <path class="st0" d="M28.1,37.4l-6.3-15.2c-.1-.3-.4-.4-.7-.3l-1.5.6c-.2.1-.4.4-.3.6l1,2.5c-2.1,2.5-.8,6.1-.7,6.3,0,.2,1.7,3.7,5,4l1,2.5c.1.3.4.4.6.3l1.5-.6c.3,0,.4-.4.3-.7h.1ZM20.7,31.6h0c-.1-.3-1-2.9.2-4.8l3.3,8.1c-2.2-.5-3.5-3-3.6-3.2h.1ZM26.5,37.5l-5.9-14.3.5-.2,5.9,14.3s-.5.2-.6.2h.1Z"/>
  <path class="st0" d="M36.5,42.7s0,0,0,0h-.2l-1.8-.7c0,0-.2-.2,0-.3,0,0,.2-.2.3,0l1.8.7c0,0,.2.2,0,.3h0Z"/>
  <path class="st0" d="M37.7,45.6l-.7,1.8s0,0,0,0h-.2c0,0-.2-.2,0-.3l.7-1.8c0,0,.2-.2.3,0,0,0,.2.2,0,.3h0Z"/>
  <path class="st0" d="M42.6,45.1h-.2l-1.8-.7c0,0-.2-.2,0-.3s.2-.2.3,0l1.8.7c0,0,.2.2,0,.3,0,0,0,0,0,0Z"/>
</svg>