<?xml version="1.0" encoding="UTF-8"?>
<svg id="Calque_1" data-name="Calque 1" xmlns="http://www.w3.org/2000/svg" viewBox="0 0 68.99 89.05">
  <defs>
    <style>
      .cls-1 {
        fill: #fff;
      }
    </style>
  </defs>
  <path class="cls-1" d="M68.76,77.81c-1.77-.11-2.39-2.16-2.6-3.36.1.03.2.02.3-.01.17-.08.29-.23.31-.42.07-.67,1.53-16.46-7.73-20.3-4.67-1.93-3.38-5.72-2.02-9.72,1.08-3.19,2.2-6.49.03-8.74-2.63-2.73-3.32-4.22-3.49-4.91,1,.25,1.78-.01,2.31-.36,2.33-1.51,3.05-6.46,1.83-12.63h0c-.99-4.99-3.58-6.07-5.86-7.01-1.02-.43-2.01-.84-2.86-1.59-.75-.67-1.39-1.6-1.82-3.05-1.39-4.64-3.86-4.31-6.24-3.99-1.53.21-3.11.42-4.62-.59-3.26-2.18-5.17-.76-6.85.49-.63.47-1.24.92-1.89,1.16-2.8,1.05-4.8,2.11-6.11,3.23-.3.26-.56.53-.83.8-.77.77-1.49,1.51-3.03,1.97-.98.29-1.65,1.04-1.89,2.11-.36,1.59.29,3.63,1.51,4.75,3.31,3.01,2.85,5.94,2.6,7.52-.02.18-.05.35-.07.49-.19,1.62-.38,6.98,5.25,7.77.02,0,.05.01.07.01-2.39,2.63-10.91,11.77-15.26,13.02-.08.02-.15.07-.21.12-.06.06-.34.37-.28.98.01.14.04.28.1.43-4.21,4.13-9.08,3.64-9.13,3.64-.14-.02-.26.08-.28.22,0,.14.09.26.22.27.02,0,.22.03.59.03,1.45,0,5.32-.34,8.8-3.67.12.22.27.45.46.7-4.1,3.62-8.74,3.82-8.79,3.82-.14,0-.25.12-.25.26,0,.13.12.24.25.24h0c.21,0,4.86-.2,9.1-3.93.17.19.36.39.57.59-4.05,3.34-8.64,4.21-8.69,4.22-.14.02-.23.15-.2.29.02.12.13.2.24.2h.05s4.8-.91,8.97-4.37c.19.19.4.37.63.55-4.02,3.11-8.65,4.69-8.69,4.71-.14.04-.21.19-.16.32.03.1.13.17.24.17.02,0,.05,0,.08-.02.05,0,4.8-1.64,8.92-4.85.21.16.44.33.67.51-3.93,2.75-8.34,4.96-8.39,4.99-.13.06-.18.21-.12.33.05.09.14.14.23.14.04,0,.07,0,.11-.02.05-.03,4.62-2.32,8.61-5.12.23.16.47.33.72.51-3.87,2.47-8.24,5.37-8.29,5.4-.12.08-.15.23-.07.35.05.07.13.11.21.11.04,0,.09,0,.13-.04.05-.04,4.57-3.03,8.47-5.52.2.13.41.27.62.4-3.81,2.2-8.07,5.76-8.12,5.8-.11.09-.12.25-.03.35.05.06.12.09.19.09.06,0,.11-.02.16-.06.05-.04,4.46-3.72,8.28-5.87.21.13.4.26.59.39-3.7,1.95-7.72,5.99-7.9,6.17-.1.1-.09.26,0,.36.05.05.12.07.18.07s.13-.02.18-.07c.04-.05,4.3-4.34,8.01-6.19.23.16.44.33.65.49-3.73,1.58-7.9,6.52-8.07,6.73-.09.11-.08.27.03.35.04.04.1.06.16.06.07,0,.14-.03.19-.09.05-.05,4.45-5.29,8.13-6.68.19.16.36.32.53.47-3.65,1.34-7.67,6.86-7.84,7.1-.09.12-.06.27.05.35.05.04.1.05.15.05.07,0,.15-.04.2-.1.04-.06,4.3-5.9,7.85-7,.23.24.45.48.64.71-3.67.79-7.84,7.32-8.03,7.6-.07.11-.04.27.08.34.04.03.09.04.13.04.09,0,.17-.04.22-.12.04-.07,4.4-6.9,7.91-7.41h.04c.19.24.36.47.5.7-3.61.53-7.66,7.66-7.83,7.97-.07.12-.02.28.1.34.04.03.08.04.12.04.09,0,.17-.05.22-.13.04-.08,4.29-7.58,7.68-7.75.14.24.26.47.36.69-3.59.09-7.61,8.04-7.79,8.38-.06.12-.01.27.11.34.04.01.08.02.12.02.09,0,.18-.05.22-.14.04-.08,4.24-8.35,7.54-8.09h.01c.13.32.23.63.29.91-3.49-.08-7.38,8.39-7.54,8.76-.06.13,0,.28.12.33.03.02.07.03.1.03.1,0,.19-.06.23-.15,1.13-2.48,4.56-8.72,7.2-8.45.05.25.07.48.08.69-3.39,0-7.04,8.78-7.2,9.18-.05.13,0,.28.14.33.03,0,.06.02.09.02.1,0,.2-.06.24-.16,1.06-2.58,4.22-8.88,6.73-8.86,0,.38-.05.62-.06.66-.05.2.02.41.19.53.09.06.19.09.29.09s.19-.03.28-.08c.14-.09,9.17-6.19,15.91-15.91-4.62,17.09,5.63,34.08,5.74,34.27.07.11.19.21.31.25.13.98.68,2.39,2.42,3.99,2.97,2.74,2.87,4.62,2.87,4.64-.02.14.09.26.22.27h.03c.12,0,.23-.1.24-.23,0-.08.15-2.12-3.02-5.04-1.68-1.55-2.17-2.88-2.26-3.75.13-.13.19-.31.1-.5,0,0,0-.38.8-1.22,0,1.25.4,3.4,2.42,5.29,1.61,1.51,2.55,3.08,2.78,4.69.03.15.06.35.27.36h.02c.13,0,.24-.1.25-.23,0-.04,0-.09-.03-.12,0-.02,0-.05,0-.08-.26-1.72-1.24-3.4-2.94-4.98-2.18-2.04-2.31-4.45-2.26-5.44.28-.27.62-.57,1.04-.9-.02,1.42.21,4.2,2.28,6.16,1.56,1.49,1.95,2.53,2.26,3.36.22.61.42,1.13.98,1.6.05.03.1.05.16.05.07,0,.14-.03.19-.09.09-.11.08-.26-.03-.35-.46-.38-.62-.8-.83-1.38-.32-.84-.74-1.98-2.39-3.55-2.13-2.02-2.16-5.08-2.09-6.21.27-.2.57-.42.9-.66,0,1.51.22,4.73,2.25,6.69,1.19,1.15,1.55,1.93,1.87,2.61.35.75.66,1.39,1.89,2.17.04.03.09.04.14.04.08,0,.16-.04.21-.11.07-.12.04-.28-.08-.35-1.11-.7-1.36-1.23-1.71-1.96-.32-.69-.72-1.54-1.97-2.76-2.04-1.97-2.12-5.47-2.08-6.68.32-.21.65-.44,1.02-.67-.02,1.6.17,5.25,2.11,7.17.94.94,1.37,1.71,1.74,2.39.52.94.93,1.69,2.5,2.17.02.01.05.01.07.01.11,0,.21-.07.24-.18.04-.13-.03-.27-.17-.31-1.37-.42-1.7-1.02-2.2-1.94-.37-.67-.83-1.51-1.83-2.49-1.93-1.91-1.99-5.85-1.95-7.15.23-.14.47-.29.72-.44-.1,1.53-.09,4.85,1.69,6.65.79.81,1.32,1.65,1.78,2.39.79,1.28,1.47,2.38,3.11,2.76h.06c.11,0,.22-.08.24-.2.04-.13-.05-.27-.18-.3-1.44-.33-2.04-1.3-2.81-2.53-.47-.77-1.01-1.64-1.85-2.48-1.76-1.79-1.61-5.41-1.5-6.63,0,0,.03-.01.04-.02.33-.2.66-.38.99-.54-.25,1.47-.54,4.59,1.1,6.3.7.73,1.19,1.56,1.66,2.36.84,1.41,1.62,2.74,3.43,3.39.03.01.05.01.08.01.11,0,.2-.06.24-.16.04-.13-.02-.28-.15-.32-1.64-.59-2.35-1.79-3.17-3.18-.48-.82-.99-1.68-1.73-2.45-1.61-1.67-1.13-5.04-.9-6.21.35-.16.71-.3,1.05-.42-.28,1.44-.68,4.64.85,6.3.57.61,1.05,1.34,1.51,2.06.95,1.47,1.94,3,3.78,3.49.02.01.04.01.06.01.11,0,.22-.07.24-.19.04-.13-.04-.27-.17-.3-1.65-.44-2.55-1.82-3.49-3.28-.47-.73-.96-1.49-1.56-2.13-1.48-1.58-.91-4.98-.67-6.14.31-.09.61-.17.9-.23-.23,1.36-.58,4.59.85,6.18.49.54.9,1.16,1.34,1.82.93,1.39,1.9,2.84,3.63,3.53.03.02.06.02.09.02.1,0,.19-.06.23-.15.06-.13,0-.28-.13-.33-1.59-.64-2.51-2.02-3.4-3.35-.43-.64-.88-1.31-1.39-1.88-1.33-1.48-.9-4.77-.7-5.94h0c.43-.08.84-.12,1.25-.15-.15,1.37-.4,4.98.92,6.52.35.41.7.87,1.03,1.32.98,1.3,1.99,2.64,3.37,3.1.03.01.06.02.08.02.11,0,.2-.07.24-.17.04-.13-.03-.28-.16-.32-1.23-.41-2.2-1.69-3.13-2.93-.34-.46-.69-.92-1.05-1.35-1.2-1.4-.94-4.94-.8-6.2.28-.01.56-.01.83.01-.04,1.22-.05,4.14.75,5.73.71,1.39,2.84,4.02,4.59,4.29h.04c.12,0,.22-.08.24-.21s-.07-.26-.21-.28c-1.42-.22-3.48-2.57-4.22-4.03-.73-1.46-.72-4.27-.69-5.46.48.05.94.12,1.37.22-.12.92-.29,3.01.37,4.9.66,1.87,2.05,3.21,4.14,4,.03.02.06.02.09.02.1,0,.2-.06.24-.16.05-.13-.02-.27-.15-.32-1.95-.74-3.24-1.98-3.85-3.7-.61-1.75-.46-3.73-.35-4.63.27.08.54.16.79.25-.02.81,0,2.56.55,3.84l.05.12c.49,1.13,1.09,2.54,3.65,3.68.03.02.07.02.1.02.1,0,.19-.05.23-.15.06-.12,0-.27-.13-.33-2.38-1.06-2.91-2.31-3.39-3.42l-.05-.12c-.47-1.1-.53-2.64-.52-3.46.43.16.82.33,1.16.51.05.88.24,2.86.91,3.96.6,1,1.67,2.09,2.83,2.16h.01c.13,0,.24-.1.25-.23.01-.14-.1-.26-.23-.27-.97-.06-1.89-1.03-2.44-1.92-.54-.88-.74-2.48-.81-3.41.47.25.84.5,1.08.68h.01c.13,1.15.72,4.07,3.12,4.23h.02c.13,0,.24-.1.25-.24.01-.13-.1-.25-.23-.26h0ZM55.32,29.15c-.56.37-1.22.39-1.96.08h0s-.03-.02-.05-.03c0-.01-.02-.01-.03-.01-.02-.02-.04-.02-.06-.03-.24-.12-.49-.27-.75-.45l-.2-.14c-1.35-.97-2.57-1.84-5.16-1.84-.34,0-.71.02-1.11.05,2.03-1.45,3.71-3.11,5.24-4.62,2.01-2,3.78-3.74,5.58-4.14,1.14,6.24.05,10.14-1.49,11.13ZM20.67,24.91c0-.43.03-.82.07-1.14.01-.13.04-.29.06-.46.26-1.63.79-5.03-2.91-8.41-.97-.88-1.5-2.54-1.21-3.79.16-.72.56-1.19,1.19-1.37,1.79-.54,2.68-1.44,3.46-2.23.25-.25.5-.5.77-.74,1.22-1.05,3.12-2.05,5.81-3.05.79-.29,1.47-.81,2.14-1.3.99-.74,1.91-1.42,3.08-1.42.74,0,1.58.27,2.62.96,1.82,1.22,3.67.97,5.3.75,2.33-.31,4.01-.54,5.15,3.29.43,1.42,1.03,2.41,1.73,3.15-1.03.88-1.93,2.61-2.96,4.55-.62,1.18-1.28,2.44-2.02,3.62.03-1.45-.33-3.09-1.39-4.04-.83-.74-1.24-1.45-1.46-1.91,1.72-.04,3.18-.76,3.98-2.07.14-.24.07-.55-.17-.69s-.54-.07-.69.17c-.71,1.17-2.13,1.72-3.8,1.58-.92-.07-1.92-.35-2.91-.85-1.24-.63-2.08-.74-2.81-.63-.06,0-.12.01-.18.02-.4.07-.76.2-1.15.34-.78.28-1.66.61-3.18.57-1.84-.01-3.12.31-3.8,1.01-.48.48-.48.97-.48,1.06.01.27.23.49.5.49h.02c.27-.01.49-.23.48-.51.02-.3.62-1.09,3.27-1.05,1.69.04,2.71-.34,3.53-.63.09-.03.19-.07.27-.09-.38.89-1.14,1.92-1.96,2.92-.32.4-.65.79-.97,1.17-1.21,1.44-2.24,2.64-2.56,3.64-.35-.24-.7-.53-1.06-.89-2.72-2.7-6.67-5.75-6.71-5.78-.22-.17-.53-.13-.7.09s-.13.53.09.7c.04.03,3.94,3.04,6.62,5.7.64.65,1.27,1.1,1.88,1.45.02.01.03.02.04.02.03.02.05.03.08.05.57.32,1.11.55,1.62.77,1.09.47,2.06.89,2.94,1.95-6.18-.17-9.35,2.51-9.5,2.64-.11.1-.17.24-.17.38,0,.12.04.23.12.33.1.11.24.17.38.17.12,0,.23-.04.33-.12.04-.04,3.34-2.81,9.72-2.36.05,0,.09.01.13.01h0c.56.04,1.15.11,1.76.21,3.2.51,5.51-1.05,7.32-3.31.04-.03.06-.07.09-.1,1.33-1.67,2.4-3.71,3.37-5.56.99-1.87,1.92-3.65,2.83-4.35.87.66,1.83,1.06,2.78,1.45,2.16.9,4.21,1.75,5.15,5.77-2.09.45-3.95,2.29-6.09,4.4-1.94,1.93-4.13,4.1-6.96,5.72,0,0-.02.01-.03.02-.14.07-.28.15-.41.23-5.15,2.77-10.88,3.83-17.05,3.14-.31-.04-.62-.08-.94-.12-3.79-.54-4.46-3.49-4.46-5.52ZM33.58,21.96c-1.17-1.8-2.52-2.38-3.84-2.95-.45-.19-.9-.39-1.36-.64.06-.74,1.36-2.29,2.43-3.55.31-.37.62-.74.92-1.11,1.07-.42,2.95-.87,3.73-.39.15.09.35.27.38.74.02.31.03.64.04.98.04,1.66.09,3.54,1.39,4.75.65.6,1.54.96,2.69,1.07-1.32,1.03-2.87,1.59-4.73,1.3-.57-.09-1.12-.16-1.65-.2ZM37.95,19.05c-.99-.91-1.03-2.5-1.07-4.04,0-.35-.02-.69-.04-1.02-.06-.85-.5-1.3-.86-1.52-.85-.53-2.16-.39-3.18-.14.63-.86,1.11-1.7,1.31-2.49.51-.02,1.09.13,1.95.56,1,.5,2.01.81,2.96.92.17.54.64,1.59,1.87,2.7,1.39,1.27,1.19,4.19.72,5.18h0c-.2.24-.39.46-.6.68-1.41.04-2.41-.24-3.05-.84h0ZM22.66,60.08c-.02-1.87-.86-5.71-6.53-9.3-2.98-1.88-4.45-3.21-5.17-4.08-.64-.79-.68-1.21-.68-1.35,5.11-1.68,14.56-12.17,16-13.78,1.16.12,2.3.18,3.42.18,4.96,0,9.62-1.16,13.89-3.46.13-.07.25-.14.38-.21l.33-.06c-.56,5.01-2.38,9.65-4.77,13.76-5.56,9.56-14.14,16.3-16.87,18.3ZM65.83,73.04c-1.99-1.3-7.66-4.18-14.31-.22-.21.13-.42.25-.62.38h-.04c-.47.02-3.43-.26-6.36-9.48-2.42-7.61,1.48-11.67,4.92-15.25,2.62-2.72,5.1-5.3,2.94-8.72-3.17-5-2.14-8-2.12-8.05.1-.26-.03-.55-.29-.65-.06-.02-.12-.03-.18-.03-.2,0-.39.12-.47.32-.05.14-1.27,3.46,2.21,8.95,1.66,2.62.1,4.46-2.81,7.49-3.46,3.6-7.75,8.07-5.15,16.25,2.26,7.1,4.64,9.29,6.13,9.92-3.26,2.09-4.74,3.51-5.36,4.46-2.22-4.09-10.23-20.7-3.84-36.25,0-.04.03-.08.03-.12,2.44-4.24,4.29-9.02,4.82-14.19,3.2-.41,4.53.26,5.89,1.19.15.11.3.22.46.33l.2.14c.22.15.43.29.63.4-.05.84.52,2.6,3.82,6.03,1.75,1.81.77,4.69-.26,7.72-1.38,4.07-2.95,8.68,2.59,10.97,7.38,3.06,7.34,15.04,7.17,18.4h0Z"/>
</svg>