<svg width="24" height="24" viewBox="0 0 24 24" fill="none" xmlns="http://www.w3.org/2000/svg">
<path d="M23.9768 16.5307C23.9768 16.518 23.9808 16.506 23.9808 16.4925V0.866567C23.9904 0.784858 23.9872 0.6994 23.9664 0.614693C23.8985 0.265367 23.5734 0 23.1819 0C23.0349 0 22.8982 0.0397301 22.78 0.104948L7.85299 3.75112C7.58374 3.81334 7.3848 4.00225 7.30331 4.23538C7.24099 4.34183 7.20344 4.46177 7.20344 4.59145V18.0037C6.44282 17.5262 5.47049 17.2391 4.41027 17.2391C1.97503 17.2391 0 18.7526 0 20.6192C0 22.4858 1.97503 24 4.41027 24C6.8463 24 8.81973 22.4865 8.81973 20.6192C8.81973 20.524 8.81095 20.4303 8.80136 20.3366V5.06897L22.3837 1.75187V14.2556C21.6239 13.7781 20.6508 13.491 19.5905 13.491C17.1553 13.491 15.1803 15.0052 15.1803 16.8703C15.1803 18.7369 17.1553 20.2504 19.5905 20.2504C22.0258 20.2504 24 18.7369 24 16.8696C24 16.7541 23.992 16.6409 23.9776 16.53L23.9768 16.5307ZM4.42704 22.4933C2.76521 22.4933 1.60671 21.5052 1.60671 20.6192C1.60671 19.7331 2.76521 18.7466 4.42704 18.7466C5.90592 18.7466 6.98372 19.5292 7.20344 20.3253V20.3343C7.20344 20.41 7.21941 20.482 7.24179 20.5502C7.24338 20.5735 7.24738 20.596 7.24738 20.6199C7.24738 21.5052 6.08888 22.494 4.42784 22.494L4.42704 22.4933ZM19.5817 18.7459C17.9351 18.7459 16.7862 17.7579 16.7862 16.8718C16.7862 15.9858 17.9343 14.9992 19.5809 14.9992C21.2276 14.9992 22.3757 15.9865 22.3757 16.8718C22.3757 17.7571 21.2292 18.7459 19.5817 18.7459Z" fill="black"/>
</svg>
