<?xml version="1.0" encoding="UTF-8"?>
<svg id="Calque_1" xmlns="http://www.w3.org/2000/svg" version="1.1" viewBox="0 0 62.8 82.5">
  <!-- Generator: Adobe Illustrator 29.1.0, SVG Export Plug-In . SVG Version: 2.1.0 Build 142)  -->
  <defs>
    <style>
      .st0 {
        fill: #fff;
      }
    </style>
  </defs>
  <polygon class="st0" points="44 79.8 38.5 68.8 26.3 67 35.1 58.4 33.1 46.2 44 51.9 54.9 46.2 52.8 58.4 61.7 67 49.5 68.8 44 79.8"/>
  <polygon class="st0" points="3.7 47.9 6.8 38.7 1.1 30.9 10.7 31.1 16.3 23.1 19.2 32.4 28.5 35.3 20.5 40.9 20.7 50.5 12.9 44.8 3.7 47.9"/>
  <polygon class="st0" points="27.9 23.6 30.6 15.7 25.6 9 33.9 9.1 38.8 2.3 41.3 10.2 49.2 12.7 42.4 17.6 42.5 25.9 35.8 20.9 27.9 23.6"/>
</svg>